<svg width="25" height="21" viewBox="0 0 25 21" fill="000" xmlns="http://www.w3.org/2000/svg">
<path d="M13.0831 9.62421C13.0831 9.62421 13.7637 8.19926 12.2218 7.16777C11.7539 2.29743 4.24631 1.8827 2.832 5.60458C0.705209 5.90233 1.32198 7.19967 1.83241 7.58249C-0.0923367 20.726 8.70193 21.3322 14.0933 18.8332C14.0933 18.8332 20.1547 20.843 22.5154 16.2385C24.2913 12.5804 21.5158 9.01808 21.5158 9.01808C21.5158 9.01808 21.5052 4.09456 18.4107 4.00949C15.4864 3.93505 15.3694 7.23157 14.8377 7.96532C14.306 8.69906 11.8815 10.4749 11.3498 12.5166C10.8181 14.5584 11.2541 16.8872 14.0189 18.8013" fill='#000'/>
<path d="M12.0514 17.0254C12.0514 17.0254 8.17005 15.8344 6.81954 14.0372C5.46903 12.2401 4.67149 9.49654 9.72261 8.43314C14.7737 7.36975 12.094 11.0491 12.094 11.0491C12.094 11.0491 9.78641 13.6225 12.0514 17.0254Z" fill='#000'/>
<path d="M18.5808 3.99881C15.6565 3.92437 15.5501 7.19962 15.0184 7.93337V7.95463C14.4761 8.68838 12.0516 10.4642 11.5199 12.506C10.9882 14.5477 11.4242 16.8765 14.189 18.7906L14.2741 18.8225C14.2741 18.8225 20.3354 20.8323 22.6961 16.2278C24.472 12.5698 21.6965 9.00739 21.6965 9.00739C21.6965 9.00739 21.6859 4.08388 18.5914 3.99881" fill='#000'/>
<path d="M18.5808 3.99881C15.6565 3.92437 15.5501 7.19962 15.0184 7.93337V7.95463C14.4761 8.68838 12.0516 10.4642 11.5199 12.506C10.9882 14.5477 11.4242 16.8765 14.189 18.7906L14.2741 18.8225C14.2741 18.8225 20.3354 20.8323 22.6961 16.2278C24.472 12.5698 21.6965 9.00739 21.6965 9.00739C21.6965 9.00739 21.6859 4.08388 18.5914 3.99881"  stroke-width="0.797546" stroke-linecap="round" stroke-linejoin="round" fill='#000'/>
<path d="M13.0831 9.62421C13.0831 9.62421 13.7637 8.19926 12.2218 7.16777C11.7539 2.29743 4.24631 1.8827 2.832 5.60458C0.705209 5.90233 1.32198 7.19967 1.83241 7.58249C1.11993 12.4847 1.88558 15.643 3.41686 17.5465C5.99028 20.7473 10.7117 20.407 14.0933 18.8438C14.0933 18.8438 19.2402 20.5453 21.888 17.2168C22.1113 16.9297 22.324 16.6107 22.5048 16.2492C24.2807 12.5911 21.5052 9.02871 21.5052 9.02871C21.5052 9.02871 21.4946 4.1052 18.4001 4.02012C15.4758 3.94569 15.3588 7.24221 14.8271 7.97595C14.2954 8.70969 11.8708 10.4856 11.3392 12.5273C10.8075 14.569 11.2434 16.8978 14.0083 18.8119"  stroke-width="0.797546" stroke-linecap="round" stroke-linejoin="round" fill='#000'/>
<path d="M13.7204 3.4045C13.9969 3.24485 13.948 2.64252 13.6112 2.05916C13.2744 1.47581 12.7772 1.13233 12.5007 1.29198C12.2242 1.45163 12.273 2.05396 12.6098 2.63732C12.9466 3.22067 13.4438 3.56415 13.7204 3.4045Z" fill='#000'  stroke-width="0.593993" stroke-linecap="round" stroke-linejoin="round"/>
<path d="M14.6679 2.63442C15.0047 2.05106 15.0535 1.44873 14.777 1.28908C14.5005 1.12943 14.0033 1.47291 13.6665 2.05626C13.3297 2.63962 13.2808 3.24195 13.5573 3.4016C13.8339 3.56126 14.3311 3.21778 14.6679 2.63442Z" fill='#000'  stroke-width="0.593993" stroke-linecap="round" stroke-linejoin="round"/>
<path d="M10.0947 8.87983C10.5705 8.87983 10.9561 8.70843 10.9561 8.497C10.9561 8.28558 10.5705 8.11418 10.0947 8.11418C9.61904 8.11418 9.2334 8.28558 9.2334 8.497C9.2334 8.70843 9.61904 8.87983 10.0947 8.87983Z"  stroke-width="0.797546" stroke-linecap="round" stroke-linejoin="round" fill='#000'/>
<path d="M7.63843 9.82627C7.63843 9.82627 8.47851 11.1449 10.0842 9.89008C11.3178 10.9641 11.8707 9.7412 11.8707 9.7412"  stroke-width="0.797546" stroke-linecap="round" stroke-linejoin="round" fill='#000'/>
<path d="M10.0947 8.92236V9.89005"  stroke-width="0.797546" stroke-linecap="round" stroke-linejoin="round" fill='#000'/>
<path d="M17.3044 1.59558C17.3044 1.59558 18.4954 2.30806 18.3253 3.99885"  stroke-width="0.797546" stroke-linecap="round" stroke-linejoin="round" fill='#000'/>
<path d="M21.4945 1C21.4945 1 18.8041 1.20204 18.6021 3.99877C21.3881 3.74356 21.4945 1 21.4945 1Z"  stroke-width="0.797546" stroke-linecap="round" stroke-linejoin="round" fill='#000'/>
<path d="M7.62786 7.92277C7.96262 7.92277 8.234 7.57998 8.234 7.15713C8.234 6.73428 7.96262 6.39149 7.62786 6.39149C7.2931 6.39149 7.02173 6.73428 7.02173 7.15713C7.02173 7.57998 7.2931 7.92277 7.62786 7.92277Z" fill='#000'/>
<path d="M11.0412 7.39108C11.2585 7.39108 11.4346 7.16731 11.4346 6.89128C11.4346 6.61525 11.2585 6.39149 11.0412 6.39149C10.8239 6.39149 10.6477 6.61525 10.6477 6.89128C10.6477 7.16731 10.8239 7.39108 11.0412 7.39108Z" fill='#000'/>
</svg>
